# xmcd
#
# Track frame offsets: 
#        150
#        30864
#        46521
#        77296
#        98224
#        127171
#        143950
#        159303
#        184695
#        213607
#        232354
#        248297
#        278639
#        298751
#        323322
#
# Disc length: 4736 seconds
#
# Revision: 0
# Processed by: cddbd v1.5.2PL0 Copyright (c) Steve Scherf et al.
# Submitted via: ExactAudioCopy v0.95a3
#
DISCID=c1127e0f
DTITLE=Slave feat. Steve Arringtone - The Definitive Groove Collection
DTITLE=CD1
DYEAR=2006
DGENRE=R&B
TTITLE0=Slide
TTITLE1=The party song
TTITLE2=Baby sinister
TTITLE3=Stellar fungk
TTITLE4=Just a touch of love
TTITLE5=Are you ready for love?
TTITLE6=Foxy Lady (Funky Lady)
TTITLE7=Thank you
TTITLE8=Everybody slide
TTITLE9=Sizzlin' hot
TTITLE10=Watching you
TTITLE11=Stone Jam
TTITLE12=Starting over
TTITLE13=Son of slide
TTITLE14=Just a touch of love (Jazzy instrumental version)
EXTD=
EXTT0=
EXTT1=
EXTT2=
EXTT3=
EXTT4=
EXTT5=
EXTT6=
EXTT7=
EXTT8=
EXTT9=
EXTT10=
EXTT11=
EXTT12=
EXTT13=
EXTT14=
PLAYORDER=
